<svg width="256" height="256" viewBox="0 0 256 256" fill="none" xmlns="http://www.w3.org/2000/svg">
<path d="M49 217.156C32.3438 205.812 20.3125 190.453 12.9062 171.078C5.5 151.703 1.79688 130.656 1.79688 107.938C1.79688 85.2188 5.5 64.1719 12.9062 44.7969C20.3125 25.4219 32.3438 10.0625 49 -1.28125L61.7188 13.0625C48.5 22.125 38.8281 34.1562 32.7031 49.1562C26.5781 64.1562 23.5156 80.5781 23.5156 98.4375V117.438C23.5156 128.531 25.3438 139.016 28.9062 148.891C31.5781 156.484 34.8281 163.469 38.6562 169.844L148.156 59.2812C143.219 53.4688 138.984 48.2344 135.453 43.5781C131.922 38.9219 129.547 34.5 128.328 30.3125H102.328V9.3125H158.328V24.0938C158.328 31.8906 160.094 39.5781 163.625 47.1562C167.156 54.7344 171.844 61.7188 177.688 68.1094L212.906 103.328C222.156 94.4219 229.453 84.1406 234.797 72.4844L250.688 84.3125C238.938 101.484 223.578 114.734 204.609 124.078C185.641 133.422 164.5 138.094 141.188 138.094H119.812L207.219 225.5H228.188V246.5H180.188V232.156L112 164.156L71.4688 204.875C78.4531 210.109 85.9375 214.5 93.9219 218.062L84.8438 238.281C73.8438 234.234 64.0938 228.359 55.5938 220.656L49 217.156Z" fill="#16C8A0"/>
</svg>